<svg width="152" height="132" viewBox="0 0 152 132" fill="none" xmlns="http://www.w3.org/2000/svg">
<path d="M117.948 131.553L118.518 114.762L105.93 112.856L105.162 131.741" fill="white"/>
<path d="M105.163 132C105.096 131.997 105.034 131.969 104.988 131.92C104.942 131.872 104.918 131.807 104.919 131.741L105.686 112.851C105.687 112.815 105.696 112.779 105.711 112.747C105.727 112.714 105.75 112.686 105.778 112.663C105.805 112.64 105.837 112.624 105.871 112.615C105.905 112.606 105.941 112.605 105.976 112.612L118.569 114.518C118.63 114.528 118.686 114.56 118.725 114.607C118.764 114.655 118.785 114.715 118.783 114.777L118.214 131.548C118.212 131.581 118.204 131.614 118.19 131.644C118.176 131.675 118.157 131.702 118.132 131.725C118.107 131.747 118.079 131.765 118.047 131.776C118.016 131.788 117.983 131.793 117.949 131.792C117.916 131.79 117.883 131.783 117.853 131.769C117.822 131.755 117.795 131.735 117.773 131.71C117.75 131.686 117.732 131.657 117.721 131.626C117.709 131.594 117.704 131.561 117.705 131.527L118.259 114.991L106.169 113.161L105.417 131.761C105.413 131.826 105.385 131.887 105.337 131.931C105.29 131.976 105.228 132 105.163 132Z" fill="#1E293B"/>
<path d="M56.5176 124.301L70.92 107.225L83.7979 110.376L67.388 127.162" fill="white"/>
<path d="M67.3877 127.421C67.3207 127.42 67.2567 127.393 67.2098 127.345C67.1861 127.322 67.1673 127.294 67.1545 127.264C67.1417 127.233 67.1351 127.2 67.1351 127.167C67.1351 127.134 67.1417 127.101 67.1545 127.071C67.1673 127.04 67.1861 127.012 67.2098 126.989L83.3046 110.518L71.0112 107.51L56.7103 124.468C56.6654 124.519 56.603 124.55 56.536 124.555C56.4689 124.561 56.4022 124.541 56.3495 124.499C56.2983 124.455 56.2665 124.392 56.2608 124.325C56.2551 124.257 56.276 124.19 56.319 124.138L70.752 107.063C70.7823 107.026 70.8222 106.999 70.8672 106.985C70.9122 106.971 70.9604 106.969 71.0061 106.981L83.8839 110.127C83.9268 110.139 83.9659 110.162 83.9978 110.193C84.0297 110.224 84.0535 110.262 84.0669 110.305C84.0787 110.348 84.0793 110.394 84.0686 110.437C84.0579 110.481 84.0364 110.521 84.0059 110.554L67.596 127.325C67.5708 127.355 67.539 127.38 67.5029 127.397C67.4668 127.413 67.4274 127.422 67.3877 127.421Z" fill="#1E293B"/>
<path d="M112.333 38.3384C112.333 38.3384 92.7567 43.705 92.9447 44.4673C93.1327 45.2296 96.9544 59.3475 96.9544 59.3475L109.151 56.2983L112.333 38.3384Z" fill="#FB9722"/>
<path d="M112.73 38.2213C112.73 38.2213 106.514 39.8882 102.703 42.0836C98.8912 44.2791 99.9381 67.6767 99.9381 67.6767L128.179 73.3686C128.179 73.3686 133.556 58.1733 133.19 51.2364C132.824 44.2994 128.535 34.4606 112.73 38.2213Z" fill="#FB9722"/>
<path d="M98.6676 56.2729C98.6358 56.2801 98.6028 56.2801 98.571 56.2729C98.5076 56.2459 98.4572 56.1952 98.4306 56.1316C98.404 56.068 98.4033 55.9965 98.4287 55.9324C100.273 51.3941 103.053 44.4724 103.13 43.9896C103.13 43.9558 103.138 43.9225 103.151 43.8915C103.165 43.8606 103.185 43.8327 103.209 43.8096C103.234 43.7864 103.263 43.7683 103.295 43.7565C103.326 43.7446 103.36 43.7392 103.394 43.7406C103.464 43.7432 103.529 43.7728 103.578 43.823C103.626 43.8732 103.653 43.9402 103.653 44.0099C103.653 44.447 100.34 52.6494 98.9115 56.1306C98.889 56.1753 98.8539 56.2126 98.8106 56.2379C98.7673 56.2631 98.7176 56.2753 98.6676 56.2729Z" fill="#1E293B"/>
<path d="M114.458 35.3704L112.466 41.357C112.466 41.357 112.415 44.9144 116.363 44.6044C117.53 44.5002 118.658 44.1378 119.667 43.5436C120.676 42.9495 121.541 42.1383 122.198 41.169L123.865 30.4358C123.26 29.9088 122.876 29.1743 122.787 28.3775C122.7 27.7811 122.717 27.1741 122.838 26.5836C123.024 25.7907 123.32 25.0277 123.717 24.317C121.839 24.024 120.117 23.101 118.833 21.6998C118.528 21.3273 118.243 20.9388 117.98 20.536C117.858 20.3479 115.352 21.5219 115.088 21.654C113.797 22.2231 112.696 23.1509 111.917 24.3272C111.4 25.3436 111.073 26.4458 110.951 27.5797C110.655 29.1377 110.505 30.72 110.504 32.3059C110.534 35.3297 114.458 35.3704 114.458 35.3704Z" fill="white"/>
<path d="M115.871 44.8581C114.94 44.9027 114.029 44.5838 113.33 43.9687C112.644 43.2707 112.255 42.3349 112.242 41.3566C112.24 41.3329 112.24 41.3091 112.242 41.2854L114.138 35.5885C113.172 35.497 110.301 35.004 110.275 32.3207C110.278 30.7228 110.429 29.1286 110.728 27.5589C110.859 26.3914 111.204 25.258 111.744 24.2149C112.529 23.0008 113.648 22.0391 114.966 21.4452C117.888 20.0019 118.081 20.2967 118.153 20.4288C118.153 20.4288 118.661 21.2216 118.986 21.5672C120.233 22.9346 121.913 23.8317 123.743 24.1082C123.778 24.1149 123.812 24.13 123.84 24.1521C123.869 24.1743 123.892 24.2029 123.907 24.2356C123.923 24.2684 123.93 24.3043 123.929 24.3404C123.928 24.3766 123.918 24.4119 123.9 24.4436C123.513 25.1351 123.224 25.8775 123.041 26.6492C122.93 27.2151 122.914 27.7958 122.996 28.3669C123.073 29.1036 123.425 29.7842 123.982 30.2727C124.016 30.2964 124.043 30.3297 124.06 30.3685C124.076 30.4072 124.08 30.4498 124.073 30.4912L122.406 41.2244C122.401 41.2549 122.391 41.2842 122.376 41.3108C121.705 42.3182 120.816 43.1613 119.774 43.7772C118.732 44.3931 117.565 44.7661 116.359 44.8682C116.201 44.8581 116.033 44.8581 115.871 44.8581ZM112.689 41.3972C112.713 42.2337 113.049 43.0311 113.63 43.6333C114.002 43.9421 114.435 44.168 114.901 44.296C115.368 44.4239 115.856 44.451 116.333 44.3753C117.454 44.2715 118.539 43.9239 119.512 43.3568C120.485 42.7897 121.321 42.0168 121.964 41.0923L123.606 30.5319C123.017 29.9702 122.643 29.2206 122.548 28.4127C122.456 27.7983 122.47 27.1725 122.589 26.5628C122.753 25.8546 123.009 25.1711 123.351 24.53C121.536 24.1912 119.881 23.2707 118.635 21.9077C118.371 21.6078 117.98 21.0285 117.827 20.8049C116.918 21.1158 116.03 21.4859 115.169 21.9127C113.931 22.4696 112.874 23.3644 112.12 24.4944C111.614 25.4909 111.29 26.5701 111.165 27.6808C110.873 29.2241 110.723 30.7908 110.718 32.3614C110.748 35.1158 114.275 35.187 114.438 35.1921C114.474 35.1922 114.509 35.2011 114.541 35.2179C114.573 35.2347 114.6 35.259 114.621 35.2886C114.642 35.3181 114.657 35.3524 114.663 35.3886C114.669 35.4248 114.667 35.4619 114.656 35.497L112.689 41.3972Z" fill="#1E293B"/>
<path d="M121.76 29.4752C121.953 29.0485 122.275 28.6929 122.68 28.4588C123.072 28.255 123.497 28.1208 123.935 28.0624C124.171 28.0066 124.416 28.0066 124.652 28.0624C124.814 28.115 124.965 28.1996 125.094 28.3114C125.424 28.5414 125.66 28.8823 125.76 29.2719C125.801 29.5944 125.764 29.922 125.653 30.2273C125.558 30.5663 125.417 30.891 125.236 31.1929C125.049 31.4905 124.805 31.7479 124.517 31.9502C124.23 32.1525 123.905 32.2956 123.562 32.3713C123.218 32.4469 122.863 32.4536 122.518 32.3909C122.172 32.3282 121.842 32.1974 121.547 32.0061" fill="white"/>
<path d="M122.996 32.5958C122.442 32.5963 121.901 32.4375 121.435 32.1384C121.39 32.1093 121.359 32.0635 121.347 32.0112C121.336 31.9589 121.346 31.9041 121.374 31.8589C121.388 31.8361 121.407 31.8164 121.429 31.8009C121.45 31.7854 121.475 31.7745 121.501 31.7688C121.527 31.7631 121.554 31.7628 121.581 31.7678C121.607 31.7728 121.632 31.783 121.654 31.7979C121.927 31.9741 122.233 32.0945 122.553 32.152C122.873 32.2096 123.201 32.2032 123.519 32.1333C124.149 31.983 124.696 31.5929 125.044 31.0458C125.216 30.7583 125.35 30.4489 125.44 30.1259C125.539 29.8528 125.573 29.5608 125.542 29.2722C125.449 28.9311 125.241 28.6329 124.952 28.4285C124.84 28.3357 124.713 28.2635 124.576 28.2151C124.37 28.1699 124.157 28.1699 123.951 28.2151C123.536 28.2726 123.134 28.3998 122.762 28.5912C122.39 28.8067 122.098 29.1364 121.928 29.5313C121.918 29.556 121.904 29.5784 121.885 29.5972C121.866 29.616 121.844 29.6308 121.819 29.6407C121.794 29.6507 121.768 29.6556 121.741 29.6551C121.715 29.6547 121.688 29.6489 121.664 29.6381C121.639 29.6287 121.616 29.6142 121.597 29.5955C121.578 29.5768 121.563 29.5543 121.553 29.5294C121.543 29.5046 121.538 29.4779 121.539 29.4511C121.539 29.4243 121.546 29.398 121.557 29.3738C121.763 28.8951 122.12 28.497 122.574 28.2405C122.986 28.027 123.431 27.8844 123.89 27.8187C124.158 27.7577 124.436 27.7577 124.703 27.8187C124.887 27.8818 125.059 27.9764 125.211 28.0982C125.579 28.3607 125.841 28.7466 125.948 29.1858C125.997 29.5386 125.959 29.8982 125.836 30.2327C125.737 30.5894 125.59 30.9312 125.399 31.2491C125.197 31.5693 124.934 31.8465 124.624 32.0645C124.315 32.2826 123.965 32.4372 123.595 32.5196C123.399 32.5668 123.198 32.5924 122.996 32.5958Z" fill="#1E293B"/>
<path d="M113.441 38.5314C114.891 38.6778 116.347 38.3187 117.563 37.515C119.494 36.1683 119.596 34.4658 119.596 34.4658C117.978 35.1663 116.218 35.4762 114.458 35.3704L113.441 38.5314Z" fill="#1E293B"/>
<path d="M114.021 38.7855C113.813 38.7879 113.606 38.776 113.401 38.7499C113.368 38.7455 113.337 38.7341 113.31 38.7165C113.282 38.6988 113.259 38.6753 113.242 38.6477C113.224 38.6201 113.213 38.589 113.209 38.5566C113.205 38.5243 113.208 38.4913 113.218 38.4602L114.234 35.3043C114.25 35.2579 114.28 35.2177 114.32 35.1894C114.361 35.1611 114.409 35.1462 114.458 35.1468C116.179 35.2307 117.896 34.9141 119.474 34.2218C119.508 34.2031 119.546 34.1934 119.585 34.1934C119.624 34.1934 119.663 34.2031 119.697 34.2218C119.73 34.2435 119.756 34.273 119.774 34.3077C119.792 34.3424 119.8 34.3811 119.799 34.42C119.799 34.4963 119.677 36.2699 117.68 37.6674C116.601 38.4011 115.325 38.7909 114.021 38.7855ZM113.731 38.3281C115.038 38.394 116.332 38.0376 117.42 37.3117C118.322 36.7257 118.983 35.8344 119.281 34.8012C117.794 35.3807 116.205 35.6554 114.61 35.6092L113.731 38.3281Z" fill="#1E293B"/>
<path d="M117.105 25.0997C117.105 25.0997 114.564 27.6407 114.92 28.2709C115.276 28.9011 116.673 28.7791 116.673 28.7791" fill="white"/>
<path d="M116.49 29.0231C116.053 29.0231 115.077 28.9571 114.732 28.3879C114.315 27.7069 116.145 25.7503 116.953 24.9423C116.974 24.9209 116.998 24.9039 117.026 24.8923C117.053 24.8807 117.083 24.8748 117.113 24.8748C117.143 24.8748 117.172 24.8807 117.2 24.8923C117.227 24.9039 117.252 24.9209 117.273 24.9423C117.315 24.985 117.338 25.0425 117.338 25.1023C117.338 25.1622 117.315 25.2197 117.273 25.2624C115.982 26.5634 114.966 27.8898 115.113 28.1541C115.352 28.5556 116.333 28.5861 116.638 28.5708C116.697 28.5693 116.755 28.5905 116.799 28.6302C116.844 28.6699 116.871 28.725 116.876 28.7843C116.878 28.8136 116.873 28.843 116.863 28.8706C116.853 28.8983 116.838 28.9237 116.818 28.9454C116.798 28.9671 116.774 28.9847 116.748 28.9972C116.721 29.0097 116.692 29.0167 116.663 29.018L116.49 29.0231Z" fill="#1E293B"/>
<path d="M113.207 30.268L118.152 30.202C118.152 30.202 117.928 33.5561 115.052 33.7594C112.176 33.9626 113.207 30.268 113.207 30.268Z" fill="#1E293B"/>
<path d="M118.273 25.1047C118.338 24.9649 118.438 24.8445 118.564 24.7553C118.69 24.6662 118.837 24.6115 118.99 24.5965C119.559 24.505 119.849 25.1708 119.849 25.1708" fill="white"/>
<path d="M119.849 25.3742C119.806 25.375 119.762 25.3629 119.725 25.3394C119.688 25.3159 119.659 25.2821 119.641 25.242C119.641 25.242 119.417 24.7338 119.026 24.7999C118.912 24.8111 118.802 24.8516 118.708 24.9175C118.613 24.9833 118.537 25.0723 118.487 25.1759C118.467 25.2322 118.425 25.2781 118.371 25.3038C118.316 25.3295 118.254 25.3328 118.198 25.3132C118.143 25.2935 118.098 25.2534 118.073 25.2012C118.047 25.149 118.043 25.0889 118.061 25.0337C118.134 24.8514 118.256 24.6924 118.412 24.5735C118.569 24.4545 118.755 24.38 118.95 24.3577C119.682 24.2358 120.037 25.0286 120.053 25.0641C120.064 25.0912 120.071 25.1202 120.071 25.1497C120.072 25.1792 120.066 25.2084 120.056 25.2358C120.045 25.2632 120.029 25.2882 120.008 25.3093C119.987 25.3304 119.963 25.3473 119.936 25.3589L119.849 25.3742Z" fill="#1E293B"/>
<path d="M113.695 24.6725C113.76 24.5327 113.86 24.4123 113.986 24.3231C114.112 24.234 114.259 24.1792 114.412 24.1643C114.981 24.0677 115.271 24.7386 115.271 24.7386" fill="white"/>
<path d="M115.271 24.9469C115.226 24.9473 115.183 24.9345 115.145 24.9101C115.108 24.8856 115.079 24.8507 115.062 24.8097C115.062 24.8097 114.839 24.3015 114.447 24.3727C114.332 24.3829 114.222 24.423 114.128 24.489C114.033 24.555 113.958 24.6445 113.909 24.7487C113.888 24.805 113.846 24.8509 113.792 24.8766C113.738 24.9022 113.676 24.9056 113.619 24.8859C113.564 24.8653 113.519 24.8242 113.493 24.7711C113.468 24.7181 113.464 24.6573 113.482 24.6013C113.556 24.4197 113.678 24.2613 113.834 24.1425C113.991 24.0236 114.176 23.9487 114.371 23.9254C115.103 23.8035 115.459 24.6013 115.474 24.6318C115.486 24.6588 115.493 24.6879 115.494 24.7176C115.495 24.7472 115.49 24.7768 115.479 24.8043C115.468 24.8319 115.451 24.857 115.43 24.878C115.409 24.899 115.384 24.9156 115.357 24.9266C115.33 24.94 115.301 24.9469 115.271 24.9469Z" fill="#1E293B"/>
<path d="M127.615 73.0079L123.57 126.984L56.3242 113.237L101.026 67.377L127.615 73.0079Z" fill="#1E293B"/>
<path d="M98.668 33.4136L19.6934 46.576L54.4341 11.2661L98.668 33.4136Z" fill="#1E293B"/>
<path d="M19.6929 46.8306C19.6427 46.8309 19.5936 46.8163 19.5517 46.7887C19.5098 46.7612 19.477 46.7218 19.4574 46.6756C19.4379 46.6294 19.4324 46.5784 19.4418 46.5292C19.4511 46.4799 19.4748 46.4344 19.51 46.3986L54.2507 11.0836C54.2887 11.0459 54.3377 11.0212 54.3907 11.013C54.4436 11.0047 54.4978 11.0135 54.5454 11.0379L98.7591 33.1904C98.8085 33.2124 98.849 33.2506 98.8739 33.2986C98.8988 33.3466 98.9067 33.4016 98.8963 33.4547C98.8914 33.5075 98.8702 33.5574 98.8356 33.5975C98.8009 33.6376 98.7546 33.6658 98.7032 33.6783L19.7336 46.8255L19.6929 46.8306ZM54.4895 11.5766L20.44 46.1953L97.8545 33.2921L54.4895 11.5766Z" fill="#1E293B"/>
<path d="M105.96 86.3939L31.4623 99.7952L19.7939 47.0438L98.728 33.8813L105.96 86.3939Z" fill="#1E293B"/>
<path d="M31.4678 100.049C31.4097 100.051 31.353 100.031 31.3075 99.9953C31.262 99.9591 31.2306 99.9081 31.2188 99.8512L19.5301 47.0947C19.5162 47.0282 19.5289 46.9588 19.5657 46.9016C19.5848 46.8717 19.6102 46.8463 19.64 46.827C19.6698 46.8077 19.7034 46.795 19.7385 46.7898L98.703 33.6273C98.7708 33.6169 98.8401 33.6333 98.8961 33.6731C98.9239 33.6935 98.9472 33.7193 98.9647 33.749C98.9821 33.7787 98.9934 33.8117 98.9977 33.8459L106.229 86.3585C106.235 86.3908 106.233 86.4239 106.225 86.4557C106.218 86.4876 106.204 86.5176 106.184 86.544C106.165 86.5704 106.141 86.5928 106.113 86.6098C106.085 86.6268 106.053 86.6381 106.021 86.643L31.5084 100.044L31.4678 100.049ZM20.0993 47.2472L31.6609 99.5056L105.676 86.1857L98.5149 34.1864L20.0993 47.2472Z" fill="#1E293B"/>
<path d="M37.7188 82.3385C37.7188 82.3385 23.9973 39.9849 17.3907 27.1071L90.9428 7.07373L95.5167 72.6319L37.7188 82.3385Z" fill="#FB9722"/>
<path d="M30.2738 34.5164C30.2172 34.5167 30.1623 34.4978 30.1179 34.4627C30.0736 34.4276 30.0425 34.3784 30.0298 34.3233C30.0127 34.2586 30.0218 34.1898 30.0551 34.1318C30.0884 34.0737 30.1432 34.0311 30.2077 34.0133L84.2957 19.992C84.3631 19.9751 84.4344 19.9858 84.494 20.0215C84.5536 20.0572 84.5965 20.1152 84.6133 20.1826C84.6302 20.25 84.6196 20.3213 84.5838 20.3809C84.5481 20.4404 84.4902 20.4834 84.4228 20.5002L30.3348 34.5063L30.2738 34.5164Z" fill="white"/>
<path d="M32.5608 43.3846C32.5033 43.3856 32.4473 43.3663 32.4027 43.33C32.358 43.2937 32.3277 43.2429 32.3169 43.1864C32.3094 43.154 32.3085 43.1204 32.3143 43.0877C32.32 43.0549 32.3322 43.0237 32.3502 42.9957C32.3682 42.9678 32.3916 42.9437 32.4191 42.925C32.4465 42.9062 32.4774 42.8932 32.51 42.8865L84.8803 31.1369C84.9477 31.1227 85.0179 31.1359 85.0756 31.1736C85.1332 31.2112 85.1736 31.2702 85.1877 31.3376C85.2019 31.405 85.1887 31.4753 85.151 31.5329C85.1134 31.5906 85.0544 31.6309 84.987 31.6451L32.637 43.3795L32.5608 43.3846Z" fill="white"/>
<path d="M37.0481 51.6834C36.9893 51.6844 36.932 51.6646 36.8864 51.6274C36.8408 51.5901 36.8099 51.538 36.7991 51.4801C36.7924 51.4474 36.7922 51.4137 36.7986 51.381C36.8049 51.3482 36.8177 51.317 36.8361 51.2892C36.8545 51.2613 36.8782 51.2374 36.9058 51.2187C36.9335 51.2 36.9646 51.187 36.9973 51.1803L87.0807 41.4533C87.113 41.4467 87.1464 41.4466 87.1789 41.453C87.2113 41.4594 87.2421 41.4722 87.2696 41.4906C87.297 41.5091 87.3205 41.5328 87.3387 41.5604C87.3568 41.588 87.3693 41.619 87.3754 41.6515C87.3828 41.6843 87.3835 41.7182 87.3775 41.7512C87.3714 41.7842 87.3588 41.8157 87.3402 41.8437C87.3217 41.8717 87.2977 41.8957 87.2697 41.9142C87.2417 41.9327 87.2102 41.9453 87.1772 41.9513L37.0938 51.6783L37.0481 51.6834Z" fill="white"/>
<path d="M39.4315 62.2747C39.3641 62.2801 39.2973 62.2585 39.2459 62.2147C39.1944 62.1708 39.1625 62.1083 39.1571 62.0409C39.1517 61.9735 39.1733 61.9068 39.2171 61.8553C39.261 61.8038 39.3234 61.7719 39.3908 61.7665L86.8976 54.0367C86.965 54.026 87.0339 54.0424 87.0892 54.0824C87.1445 54.1224 87.1816 54.1828 87.1924 54.2502C87.2032 54.3176 87.1867 54.3865 87.1467 54.4418C87.1067 54.4971 87.0463 54.5342 86.9789 54.5449L39.4721 62.2696L39.4315 62.2747Z" fill="white"/>
<path d="M64.4751 67.4481L19.7939 47.0438L31.4623 99.7952L105.96 86.3939L98.728 33.8813L64.4751 67.4481Z" fill="white"/>
<path d="M31.468 100.049C31.4099 100.051 31.3532 100.031 31.3077 99.9953C31.2622 99.9591 31.2308 99.9081 31.219 99.8512L19.5303 47.0947C19.5202 47.0484 19.5232 47.0002 19.539 46.9556C19.5548 46.9109 19.5828 46.8715 19.6198 46.8419C19.6568 46.8123 19.7013 46.7937 19.7484 46.788C19.7954 46.7824 19.8431 46.7901 19.886 46.8101L64.4097 67.1382L98.5507 33.6782C98.5843 33.6445 98.6267 33.6209 98.673 33.6101C98.7193 33.5994 98.7677 33.6018 98.8127 33.6171C98.8577 33.6325 98.8975 33.6602 98.9275 33.697C98.9576 33.7338 98.9767 33.7784 98.9827 33.8255L106.214 86.3381C106.219 86.3705 106.218 86.4035 106.21 86.4354C106.203 86.4672 106.189 86.4972 106.169 86.5237C106.15 86.5501 106.126 86.5725 106.098 86.5895C106.07 86.6065 106.038 86.6177 106.006 86.6227L31.5086 100.044L31.468 100.049ZM20.1503 47.486L31.6611 99.5056L105.676 86.1857L98.5609 34.4151L64.6536 67.6312C64.6164 67.6667 64.5692 67.6901 64.5184 67.6983C64.4676 67.7065 64.4155 67.699 64.369 67.6769L20.1503 47.486Z" fill="#1E293B"/>
<path d="M105.965 86.3938L31.468 99.7951L64.4808 67.448L105.965 86.3938Z" fill="white"/>
<path d="M31.4678 100.049C31.4207 100.05 31.3744 100.038 31.334 100.013C31.2936 99.9891 31.2608 99.9541 31.2391 99.9123C31.2145 99.8643 31.2062 99.8096 31.2154 99.7564C31.2245 99.7033 31.2507 99.6545 31.2899 99.6175L64.3231 67.2654C64.3603 67.2298 64.4075 67.2064 64.4583 67.1982C64.5091 67.1901 64.5612 67.1975 64.6077 67.2196L106.087 86.1603C106.136 86.1834 106.177 86.2213 106.203 86.2687C106.23 86.3161 106.241 86.3707 106.235 86.4246C106.228 86.4778 106.205 86.5276 106.168 86.5668C106.132 86.6061 106.084 86.6328 106.031 86.6431L31.5136 100.049H31.4678ZM64.5315 67.7532L32.2352 99.399L105.117 86.2874L64.5315 67.7532Z" fill="#1E293B"/>
<path d="M105.965 86.3938L31.468 99.7951L64.4808 67.448L105.965 86.3938Z" fill="white"/>
<path d="M31.4678 100.049C31.4207 100.05 31.3744 100.038 31.334 100.013C31.2936 99.9891 31.2608 99.9541 31.2391 99.9123C31.2145 99.8643 31.2062 99.8096 31.2154 99.7564C31.2245 99.7033 31.2507 99.6545 31.2899 99.6175L64.3231 67.2654C64.3603 67.2298 64.4075 67.2064 64.4583 67.1982C64.5091 67.1901 64.5612 67.1975 64.6077 67.2196L106.087 86.1603C106.136 86.1834 106.177 86.2213 106.203 86.2687C106.23 86.3161 106.241 86.3707 106.235 86.4246C106.228 86.4778 106.205 86.5276 106.168 86.5668C106.132 86.6061 106.084 86.6328 106.031 86.6431L31.5136 100.049H31.4678ZM64.5315 67.7532L32.2352 99.399L105.117 86.2874L64.5315 67.7532Z" fill="#1E293B"/>
<path d="M100.782 13.7056C100.782 13.7056 99.6995 17.7712 96.2793 17.8728C96.2793 17.8728 99.8875 18.8892 100.645 22.2739C100.981 21.3348 101.536 20.4895 102.264 19.808C102.993 19.1266 103.873 18.6287 104.832 18.3556C103.85 17.9362 102.976 17.3001 102.274 16.4948C101.573 15.6895 101.063 14.736 100.782 13.7056Z" fill="#E2E8F0"/>
<path d="M2.56635 44.5992C2.56635 44.5992 5.29539 48.5022 2.87635 51.5209C2.87635 51.5209 6.37786 49.1425 9.85397 50.9568C9.28851 49.9833 8.96355 48.889 8.9061 47.7646C8.84865 46.6403 9.06036 45.5185 9.52364 44.4925C9.52364 44.4925 6.55065 46.2915 2.56635 44.5992Z" fill="#E2E8F0"/>
<path d="M27.0466 12.7757C27.0466 12.7757 27.6209 19.5754 22.4728 21.5726C22.4728 21.5726 28.5153 21.1457 31.5188 25.8924C31.5188 25.8924 31.3053 20.6884 35.7572 17.6544C35.7165 17.6544 30.7463 17.7459 27.0466 12.7757Z" fill="#E2E8F0"/>
<path d="M124.855 46.9979C124.855 46.9979 85.3629 67.0261 79.3509 68.1747C73.3389 69.3232 66.1885 67.3158 66.4731 69.0335C66.7577 70.7513 70.1931 71.6051 70.1931 71.6051C70.1931 71.6051 59.3226 73.3228 59.8918 74.4713C60.461 75.6199 67.6216 74.1816 67.6216 74.1816C67.6216 74.1816 58.7484 76.7582 60.7507 77.9017C62.753 79.0451 69.0496 76.4736 69.0496 76.4736C69.0496 76.4736 59.6072 81.3371 62.1838 81.6217C64.7604 81.9063 69.3393 79.3348 69.3393 79.3348C69.3393 79.3348 62.1838 83.0549 65.045 83.3394C67.9062 83.624 110.544 68.4593 124.855 59.8757" fill="white"/>
<path d="M65.1312 83.599H65.0194C64.4858 83.543 64.1808 83.3601 64.1249 83.0552C64.0385 82.5978 64.6738 81.9575 65.5581 81.307C64.4739 81.7277 63.3153 81.9231 62.1531 81.8812C61.7618 81.8355 61.5382 81.6881 61.4924 81.4289C61.3501 80.6666 63.8505 79.0556 66.173 77.7394C64.2062 78.3136 61.7821 78.7914 60.6234 78.1307C60.4911 78.0755 60.3796 77.9799 60.3048 77.8577C60.23 77.7354 60.1956 77.5926 60.2067 77.4497C60.3032 76.6467 62.3666 75.7066 64.3536 74.9849C62.27 75.2441 60.039 75.3305 59.6629 74.5885C59.6291 74.5234 59.6114 74.451 59.6114 74.3776C59.6114 74.3042 59.6291 74.2319 59.6629 74.1667C60.1711 73.1503 66.3458 71.9967 69.1053 71.5342C68.0127 71.1226 66.422 70.3145 66.2136 69.0796C66.1925 68.9755 66.1962 68.8678 66.2245 68.7654C66.2527 68.663 66.3047 68.5687 66.3763 68.4901C66.8845 67.926 68.4396 68.0175 70.8078 68.1547C73.3082 68.297 76.398 68.4748 79.2948 67.9311C85.2001 66.8029 124.337 46.9728 124.728 46.7746C124.789 46.7442 124.859 46.7389 124.924 46.7598C124.988 46.7807 125.042 46.8262 125.074 46.8864C125.104 46.9464 125.109 47.0159 125.088 47.0797C125.067 47.1435 125.022 47.1964 124.962 47.2269C123.346 48.0451 85.3678 67.2907 79.3913 68.4291C76.4539 68.9881 73.2929 68.8052 70.7519 68.6629C68.8563 68.5511 67.0674 68.4494 66.7269 68.8255C66.7074 68.8482 66.6938 68.8755 66.6876 68.9048C66.6814 68.9341 66.6827 68.9645 66.6914 68.9932C66.9048 70.2688 69.3086 71.1378 70.2234 71.3665C70.2908 71.3699 70.354 71.3999 70.3993 71.4499C70.4446 71.5 70.4681 71.5659 70.4648 71.6333C70.4614 71.7007 70.4314 71.764 70.3814 71.8093C70.3313 71.8546 70.2653 71.8781 70.198 71.8747C65.5174 72.6116 60.3185 73.7906 60.0847 74.4157C60.3846 74.9748 64.1859 74.6241 67.535 73.9533C67.5683 73.9453 67.603 73.9439 67.6369 73.9493C67.6708 73.9546 67.7033 73.9666 67.7325 73.9846C67.7618 74.0025 67.7872 74.026 67.8074 74.0538C67.8275 74.0816 67.842 74.113 67.8501 74.1464C67.8581 74.1798 67.8594 74.2144 67.8541 74.2483C67.8487 74.2822 67.8367 74.3147 67.8188 74.3439C67.8008 74.3732 67.7773 74.3986 67.7495 74.4188C67.7218 74.439 67.6903 74.4535 67.6569 74.4615C64.3587 75.4169 60.7555 76.8653 60.6742 77.5412C60.6742 77.6072 60.7759 77.6784 60.8419 77.7191C62.397 78.6084 67.1996 76.9771 68.9173 76.2707C68.9788 76.2464 69.0473 76.2465 69.1087 76.2711C69.1701 76.2957 69.2198 76.3428 69.2476 76.4028C69.2743 76.4624 69.277 76.5298 69.2552 76.5913C69.2335 76.6528 69.1889 76.7036 69.1307 76.7331C65.7105 78.4966 62.0159 80.7581 61.9549 81.3629C62.0267 81.3827 62.0997 81.3979 62.1734 81.4086C64.0944 81.622 67.2555 80.133 68.5819 79.4622L69.1816 79.142C69.2409 79.1115 69.31 79.1056 69.3737 79.1256C69.4374 79.1455 69.4907 79.1898 69.522 79.2487C69.5382 79.2774 69.5486 79.309 69.5525 79.3417C69.5564 79.3743 69.5538 79.4075 69.5448 79.4391C69.5358 79.4708 69.5206 79.5004 69.5002 79.5261C69.4797 79.5519 69.4543 79.5733 69.4255 79.5892C69.3848 79.5892 69.1511 79.7468 68.7852 79.9348C66.4118 81.2257 64.5112 82.5978 64.5874 82.984C64.5874 82.984 64.6789 83.0806 65.0346 83.1162H65.1617C66.6863 83.1162 77.1095 79.8027 90.5718 74.7207C97.9306 71.9459 115.982 64.9276 124.728 59.6829C124.756 59.6621 124.789 59.6474 124.823 59.6398C124.857 59.6321 124.893 59.6316 124.928 59.6384C124.962 59.6452 124.995 59.6591 125.024 59.6792C125.053 59.6993 125.077 59.7251 125.095 59.7552C125.114 59.7852 125.126 59.8186 125.13 59.8535C125.135 59.8883 125.132 59.9238 125.123 59.9576C125.113 59.9914 125.097 60.0229 125.074 60.05C125.052 60.077 125.024 60.0992 124.992 60.1149C111.19 68.3681 69.1511 83.599 65.1312 83.599Z" fill="#1E293B"/>
<path d="M117.558 63.9263C117.558 63.9263 111.459 49.6204 112.023 49.4272C112.587 49.2341 124.22 41.606 125.191 42.1803C126.161 42.7545 129.765 53.8181 128.621 57.0604C127.478 60.3028 117.558 63.9263 117.558 63.9263Z" fill="#FB9722"/>
<path d="M119.082 63.9976C119.027 63.9975 118.973 63.9803 118.929 63.9484C118.884 63.9165 118.851 63.8716 118.833 63.8197C118.812 63.7537 118.818 63.6821 118.849 63.6203C118.88 63.5585 118.935 63.5115 119 63.4894C119.087 63.4589 127.553 60.6028 130.897 56.3238C130.919 56.2969 130.945 56.2746 130.975 56.258C131.005 56.2414 131.038 56.231 131.072 56.2272C131.106 56.2234 131.14 56.2264 131.173 56.236C131.206 56.2456 131.237 56.2616 131.263 56.2831C131.291 56.3036 131.314 56.3295 131.332 56.3592C131.349 56.389 131.361 56.422 131.365 56.4562C131.369 56.4905 131.366 56.5252 131.357 56.5584C131.347 56.5915 131.331 56.6223 131.309 56.649C127.869 61.05 119.519 63.8706 119.168 63.9874C119.14 63.9958 119.111 63.9992 119.082 63.9976Z" fill="#1E293B"/>
<path d="M125.846 32.9105C125.784 32.9092 125.724 32.8857 125.678 32.8443C125.632 32.8029 125.602 32.7463 125.594 32.6848C125.586 32.6233 125.601 32.561 125.635 32.5092C125.669 32.4574 125.72 32.4195 125.78 32.4023C126.729 32.1193 127.602 31.6266 128.334 30.9607C129.067 30.2948 129.641 29.4727 130.013 28.5552C130.754 26.68 130.93 24.6293 130.521 22.655C130.237 20.7465 129.407 18.9606 128.133 17.512C127.495 16.8108 126.706 16.2635 125.825 15.9114C124.945 15.5592 123.996 15.4115 123.051 15.4792L122.68 15.53C122.402 15.5765 122.122 15.6019 121.841 15.6062C121.498 15.5897 121.158 15.5404 120.825 15.4589L120.606 15.4131C118.815 15.0549 116.962 15.155 115.22 15.7041C113.478 16.2532 111.902 17.2335 110.64 18.554C109.378 19.8746 108.47 21.4925 108 23.2578C107.53 25.0231 107.513 26.8785 107.952 28.6518C108.074 29.16 108.369 29.968 108.994 30.0443C109.028 30.0474 109.062 30.0574 109.092 30.0739C109.122 30.0903 109.149 30.1128 109.17 30.1399C109.192 30.167 109.208 30.1982 109.216 30.2316C109.225 30.2649 109.227 30.2998 109.222 30.3339C109.219 30.3681 109.208 30.4011 109.192 30.4311C109.175 30.4612 109.152 30.4876 109.125 30.5089C109.099 30.5301 109.068 30.5459 109.035 30.5551C109.001 30.5643 108.967 30.5669 108.933 30.5626C108.237 30.4762 107.708 29.8461 107.444 28.7788C106.979 26.9174 106.993 24.9687 107.484 23.1142C107.975 21.2596 108.928 19.5593 110.252 18.1717C111.577 16.784 113.231 15.754 115.061 15.1775C116.891 14.601 118.837 14.4967 120.718 14.8744L120.947 14.9202C121.253 14.9974 121.566 15.0434 121.882 15.0574C122.134 15.0506 122.385 15.0269 122.634 14.9862C122.766 14.9862 122.893 14.9456 123.025 14.9354C124.05 14.853 125.08 15.0087 126.035 15.3904C126.99 15.7722 127.844 16.3696 128.529 17.1359C129.882 18.6561 130.765 20.5363 131.07 22.5483C131.495 24.6247 131.303 26.7802 130.516 28.7484C130.114 29.7387 129.494 30.6258 128.703 31.3438C127.911 32.0617 126.967 32.592 125.942 32.8953L125.846 32.9105Z" fill="#1E293B"/>
<path d="M121.877 15.3319C121.877 15.3319 124.52 13.3702 128.814 14.4171C133.108 15.464 134.73 23.2903 130.72 27.4881C130.72 27.4881 131.345 16.0484 121.877 15.3319Z" fill="#1E293B"/>
<path d="M137.159 39.8681H137.133C135.1 39.7429 133.152 39.0079 131.543 37.759C130.736 37.1226 130.087 36.3087 129.647 35.3805C129.206 34.4524 128.985 33.435 129.002 32.4076C129.003 32.3729 129.01 32.3387 129.025 32.3071C129.039 32.2754 129.06 32.2471 129.085 32.2237C129.111 32.2004 129.141 32.1826 129.174 32.1714C129.207 32.1602 129.242 32.1558 129.277 32.1586C129.311 32.1599 129.345 32.1681 129.376 32.1827C129.408 32.1972 129.436 32.2179 129.459 32.2435C129.482 32.269 129.5 32.299 129.511 32.3315C129.523 32.3641 129.528 32.3986 129.526 32.4331C129.511 33.3775 129.715 34.3126 130.12 35.1657C130.525 36.0188 131.122 36.7671 131.863 37.3525C133.105 38.3289 134.577 38.9695 136.137 39.2125C135.709 38.7323 135.436 38.1333 135.355 37.4948C135.271 36.5319 135.419 35.5631 135.787 34.6691C136.399 33.1507 137.146 31.6897 138.018 30.3037C139.283 28.1438 140.477 26.1059 140.742 23.7377C140.896 22.3698 140.714 20.9848 140.21 19.7037C139.706 18.4226 138.896 17.2844 137.851 16.3886C136.805 15.4927 135.557 14.8664 134.213 14.5644C132.87 14.2624 131.474 14.2939 130.146 14.6561C130.078 14.6735 130.007 14.6642 129.946 14.6301C129.885 14.596 129.84 14.5398 129.82 14.4732C129.811 14.4401 129.809 14.4056 129.813 14.3716C129.817 14.3375 129.828 14.3047 129.845 14.2749C129.862 14.2451 129.885 14.219 129.912 14.1981C129.939 14.1772 129.97 14.1618 130.003 14.153C131.415 13.7676 132.9 13.7339 134.328 14.0549C135.756 14.3759 137.084 15.0419 138.195 15.9946C139.306 16.9472 140.167 18.1576 140.702 19.5198C141.237 20.882 141.43 22.3546 141.265 23.8089C140.986 26.2838 139.705 28.464 138.47 30.5781C137.627 31.9338 136.904 33.3605 136.31 34.8419C135.964 35.6542 135.825 36.5393 135.904 37.4185C135.943 37.8317 136.088 38.2277 136.326 38.5679C136.564 38.9081 136.886 39.181 137.26 39.3599C137.316 39.3832 137.363 39.4251 137.391 39.4785C137.42 39.5319 137.43 39.5936 137.418 39.6532C137.407 39.7128 137.376 39.7667 137.329 39.8058C137.283 39.8449 137.224 39.8669 137.164 39.8681H137.159Z" fill="#1E293B"/>
<path d="M113.837 51.5516C113.772 51.563 113.706 51.5497 113.65 51.5143C113.594 51.4788 113.554 51.4239 113.537 51.3602C113.519 51.2965 113.527 51.2286 113.557 51.17C113.587 51.1114 113.638 51.0662 113.7 51.0434L124.144 44.6044C124.203 44.5686 124.274 44.5575 124.342 44.5737C124.409 44.5898 124.468 44.6319 124.505 44.6908C124.523 44.7201 124.535 44.7527 124.541 44.7868C124.547 44.8209 124.546 44.8558 124.537 44.8895C124.529 44.9231 124.515 44.9547 124.494 44.9826C124.474 45.0105 124.448 45.0339 124.418 45.0517L113.975 51.4906C113.936 51.5235 113.888 51.5447 113.837 51.5516Z" fill="#1E293B"/>
<path d="M0.233775 70.5431C0.171774 70.5431 0.112312 70.5185 0.0684708 70.4747C0.0246298 70.4308 0 70.3714 0 70.3094C0 70.2474 0.0246298 70.1879 0.0684708 70.1441C0.112312 70.1002 0.171774 70.0756 0.233775 70.0756L15.9881 69.2167C16.0195 69.2131 16.0513 69.2162 16.0814 69.2259C16.1116 69.2355 16.1393 69.2514 16.1629 69.2725C16.1864 69.2936 16.2052 69.3195 16.218 69.3485C16.2308 69.3774 16.2373 69.4087 16.2371 69.4403C16.2399 69.5015 16.2185 69.5613 16.1777 69.607C16.1368 69.6526 16.0797 69.6803 16.0185 69.6843L0.264266 70.5431H0.233775Z" fill="#E2E8F0"/>
<path d="M38.0084 118.909C37.9635 118.91 37.9193 118.897 37.8813 118.873C37.8295 118.839 37.793 118.786 37.7797 118.725C37.7665 118.664 37.7774 118.601 37.8102 118.548L45.5399 106.529C45.5556 106.501 45.5768 106.477 45.6022 106.457C45.6277 106.438 45.6568 106.424 45.6878 106.416C45.7189 106.409 45.7512 106.407 45.7827 106.413C45.8142 106.418 45.8443 106.43 45.8711 106.447C45.8979 106.465 45.9209 106.487 45.9386 106.514C45.9562 106.541 45.9683 106.571 45.9739 106.602C45.9795 106.634 45.9787 106.666 45.9713 106.697C45.964 106.728 45.9504 106.757 45.9313 106.783L38.2269 118.802C38.2038 118.838 38.1712 118.867 38.1326 118.886C38.0941 118.905 38.0511 118.913 38.0084 118.909Z" fill="#E2E8F0"/>
<path d="M8.8172 99.4493C8.77552 99.4489 8.7347 99.4374 8.69895 99.416C8.66321 99.3945 8.63385 99.3639 8.61392 99.3273C8.59879 99.3007 8.58914 99.2713 8.58556 99.241C8.58197 99.2106 8.58452 99.1798 8.59305 99.1504C8.60158 99.121 8.61592 99.0937 8.63522 99.0699C8.65451 99.0462 8.67838 99.0266 8.7054 99.0122L20.4398 92.4259C20.4946 92.3965 20.5587 92.3896 20.6184 92.4066C20.6782 92.4237 20.729 92.4635 20.76 92.5174C20.7754 92.544 20.7854 92.5735 20.7894 92.6041C20.7935 92.6346 20.7914 92.6657 20.7834 92.6954C20.7753 92.7252 20.7615 92.7531 20.7427 92.7774C20.7238 92.8018 20.7003 92.8223 20.6736 92.8375L8.93917 99.4442C8.89968 99.4566 8.85759 99.4584 8.8172 99.4493Z" fill="#E2E8F0"/>
<path d="M95.8161 8.1561C95.7785 8.156 95.7414 8.1468 95.7081 8.12929C95.6748 8.11179 95.6461 8.08649 95.6247 8.05556C95.6032 8.02462 95.5896 7.98896 95.5848 7.9516C95.5801 7.91425 95.5845 7.87631 95.5976 7.84101L98.4588 0.136664C98.4833 0.0829196 98.5273 0.0404625 98.5819 0.0178308C98.6365 -0.00480093 98.6976 -0.00592851 98.753 0.0146757C98.8083 0.0352798 98.8538 0.076087 98.8804 0.12889C98.9069 0.181692 98.9124 0.242573 98.8958 0.299288L96.0347 8.02397C96.0155 8.06523 95.9845 8.09984 95.9456 8.12338C95.9066 8.14691 95.8616 8.15831 95.8161 8.1561Z" fill="#E2E8F0"/>
<path d="M139.029 54.8039C138.974 54.8046 138.92 54.7854 138.878 54.75C138.836 54.7145 138.809 54.6651 138.8 54.6108C138.795 54.5804 138.796 54.5493 138.803 54.5193C138.81 54.4893 138.823 54.461 138.841 54.436C138.859 54.411 138.881 54.3897 138.907 54.3735C138.934 54.3573 138.963 54.3464 138.993 54.3415L151.297 52.3086C151.358 52.2997 151.42 52.3149 151.47 52.3509C151.521 52.3869 151.555 52.441 151.566 52.5018C151.571 52.5321 151.57 52.5632 151.563 52.5932C151.556 52.6232 151.543 52.6515 151.526 52.6766C151.508 52.7016 151.485 52.7228 151.459 52.7391C151.433 52.7553 151.403 52.7662 151.373 52.7711L139.064 54.7785L139.029 54.8039Z" fill="#E2E8F0"/>
<path d="M138.744 105.746C138.709 105.747 138.674 105.739 138.642 105.723C138.61 105.707 138.583 105.684 138.561 105.655L130.832 95.9278C130.794 95.8783 130.777 95.8161 130.785 95.7544C130.793 95.6927 130.824 95.6365 130.872 95.5975C130.896 95.5781 130.923 95.5637 130.952 95.555C130.982 95.5463 131.012 95.5435 131.043 95.5468C131.073 95.5501 131.102 95.5595 131.129 95.5743C131.155 95.5891 131.179 95.6091 131.198 95.6331L138.927 105.365C138.947 105.389 138.961 105.417 138.969 105.447C138.978 105.477 138.98 105.508 138.976 105.539C138.972 105.57 138.963 105.599 138.947 105.626C138.932 105.653 138.911 105.677 138.887 105.695C138.846 105.727 138.796 105.745 138.744 105.746Z" fill="#E2E8F0"/>
<path d="M18.448 23.1228C18.3921 23.1234 18.3378 23.1036 18.2956 23.0669L12.7714 18.3203C12.7288 18.2758 12.7051 18.2167 12.7051 18.1551C12.7051 18.0936 12.7288 18.0344 12.7714 17.99C12.791 17.9659 12.8152 17.9462 12.8427 17.9318C12.8701 17.9174 12.9002 17.9088 12.9311 17.9064C12.962 17.9041 12.9931 17.908 13.0224 17.918C13.0517 17.928 13.0787 17.9438 13.1017 17.9645L18.6259 22.7112C18.6499 22.7307 18.6697 22.755 18.684 22.7824C18.6984 22.8099 18.707 22.84 18.7094 22.8709C18.7118 22.9018 18.7079 22.9328 18.6979 22.9621C18.6879 22.9915 18.672 23.0185 18.6513 23.0415C18.6272 23.0713 18.5959 23.0945 18.5603 23.1087C18.5247 23.123 18.486 23.1278 18.448 23.1228Z" fill="#E2E8F0"/>
<path d="M115.708 82.0081C115.665 82.0083 115.623 81.9978 115.586 81.9776C115.556 81.9622 115.531 81.941 115.51 81.9155C115.489 81.8899 115.473 81.8604 115.463 81.8287C115.454 81.797 115.451 81.7637 115.454 81.7308C115.458 81.6979 115.468 81.6661 115.484 81.6371L121.018 71.5239C121.045 71.4744 121.088 71.4354 121.139 71.4133C121.191 71.3911 121.249 71.3871 121.303 71.4019C121.358 71.4148 121.406 71.446 121.44 71.4905C121.475 71.5349 121.492 71.5898 121.491 71.6459V80.6106C121.491 80.6779 121.464 80.7426 121.417 80.7902C121.369 80.8379 121.304 80.8647 121.237 80.8647C121.169 80.8647 121.105 80.8379 121.057 80.7902C121.01 80.7426 120.983 80.6779 120.983 80.6106V72.6369L115.901 81.8811C115.881 81.916 115.853 81.9457 115.819 81.9678C115.786 81.9899 115.748 82.0037 115.708 82.0081Z" fill="white"/>
</svg>
