<svg width="38" height="38" viewBox="0 0 38 38" fill="none" xmlns="http://www.w3.org/2000/svg">
<path d="M5.22529 36.0209C4.65529 36.0209 4.1011 35.8784 3.6261 35.5934C2.56527 34.9759 1.96362 33.7409 1.96362 32.205V14.2184C1.96362 10.8459 4.70277 8.10669 8.07527 8.10669H20.3936C23.7661 8.10669 26.5053 10.8459 26.5053 14.2184V32.205C26.5053 33.7409 25.9036 34.96 24.8428 35.5934C23.782 36.2109 22.4203 36.1475 21.0745 35.4033L14.852 31.9359C14.5511 31.7617 13.9178 31.7617 13.6169 31.9359L7.39444 35.4033C6.66611 35.815 5.92195 36.0209 5.22529 36.0209ZM8.09111 10.4975C6.03278 10.4975 4.35447 12.1758 4.35447 14.2342V32.2209C4.35447 32.87 4.54447 33.3767 4.8453 33.5509C5.14613 33.725 5.68449 33.6458 6.25449 33.3292L12.477 29.8617C13.4903 29.3075 15.0103 29.3075 16.0236 29.8617L22.2461 33.3292C22.8161 33.6458 23.3386 33.725 23.6553 33.5509C23.9561 33.3767 24.1461 32.87 24.1461 32.2209V14.2342C24.1461 12.1758 22.4678 10.4975 20.4095 10.4975H8.09111Z" fill="#FB9722"/>
<path d="M23.2593 36.0208C22.5626 36.0208 21.8343 35.815 21.0901 35.4192L14.8676 31.9517C14.5668 31.7933 13.9175 31.7933 13.6167 31.9517L7.41007 35.4192C6.06424 36.1633 4.68673 36.2267 3.64173 35.6092C2.5809 34.9917 1.97925 33.7567 1.97925 32.2367V14.25C1.97925 10.8775 4.71839 8.13837 8.09089 8.13837H20.4093C23.7818 8.13837 26.5209 10.8775 26.5209 14.25V32.2367C26.5209 33.7567 25.9193 34.9917 24.8584 35.6092C24.3834 35.8783 23.8451 36.0208 23.2593 36.0208ZM14.2501 29.45C14.8834 29.45 15.5009 29.5925 16.0234 29.8775L22.2459 33.345C22.8159 33.6617 23.3542 33.7408 23.6551 33.5508C23.9559 33.3767 24.1459 32.87 24.1459 32.2209V14.2342C24.1459 12.1758 22.4676 10.4975 20.4093 10.4975H8.09089C6.03256 10.4975 4.35425 12.1758 4.35425 14.2342V32.2209C4.35425 32.87 4.54424 33.3767 4.84508 33.5508C5.14591 33.725 5.68427 33.6458 6.25427 33.3292L12.4768 29.8617C12.9834 29.5925 13.6167 29.45 14.2501 29.45Z" fill="#FB9722"/>
<path d="M32.7593 29.8775C32.0626 29.8775 31.3343 29.6716 30.5901 29.2758L24.7476 26.0141C24.3676 25.8083 24.1459 25.4125 24.1459 24.985V14.25C24.1459 12.1916 22.4676 10.5133 20.4093 10.5133H12.6667C12.0176 10.5133 11.4792 9.975 11.4792 9.32584V8.10664C11.4792 4.73414 14.2184 1.995 17.5909 1.995H29.9093C33.2818 1.995 36.0209 4.73414 36.0209 8.10664V26.0933C36.0209 27.6133 35.4193 28.8483 34.3584 29.4658C33.8834 29.735 33.3451 29.8775 32.7593 29.8775ZM26.5209 24.2725L31.7459 27.2016C32.3159 27.5183 32.8384 27.5975 33.1551 27.4075C33.4718 27.2175 33.6459 26.7266 33.6459 26.0775V8.09079C33.6459 6.03246 31.9676 4.35415 29.9093 4.35415H17.5909C15.5326 4.35415 13.8542 6.03246 13.8542 8.09079V8.12249H20.4093C23.7818 8.12249 26.5209 10.8616 26.5209 14.2341V24.2725Z" fill="#FB9722"/>
</svg>
