<svg width="35" height="35" viewBox="0 0 35 35" fill="none" xmlns="http://www.w3.org/2000/svg">
<path fill-rule="evenodd" clip-rule="evenodd" d="M26.8847 16.7192C26.8847 18.0542 26.6218 19.376 26.1108 20.6094C25.6 21.8427 24.8512 22.9633 23.9074 23.9073C22.9634 24.8511 21.8428 25.6 20.6094 26.1109C19.3761 26.6217 18.0542 26.8846 16.7193 26.8846C15.3844 26.8846 14.0625 26.6217 12.8292 26.1109C11.5958 25.6 10.4752 24.8511 9.53127 23.9073C8.58731 22.9633 7.83855 21.8427 7.32768 20.6094C6.81681 19.376 6.55389 18.0542 6.55389 16.7192C6.55389 14.0232 7.62487 11.4376 9.53127 9.53121C11.4376 7.62481 14.0233 6.55383 16.7193 6.55383C19.4153 6.55383 22.0009 7.62481 23.9074 9.53121C25.8137 11.4376 26.8847 14.0232 26.8847 16.7192ZM25.0324 27.4268C22.3089 29.5412 18.882 30.5381 15.4493 30.2146C12.0166 29.8913 8.83623 28.2719 6.55559 25.686C4.27492 23.1002 3.06546 19.7424 3.1734 16.2962C3.28135 12.8501 4.69859 9.57454 7.1366 7.13653C9.57462 4.69853 12.8501 3.28129 16.2963 3.17334C19.7425 3.0654 23.1003 4.27486 25.6861 6.55553C28.272 8.83617 29.8914 12.0166 30.2147 15.4492C30.5382 18.8819 29.5413 22.3088 27.4269 25.0323L34.2942 31.8996C34.4607 32.0548 34.5942 32.2418 34.6868 32.4496C34.7794 32.6575 34.8291 32.8818 34.8332 33.1093C34.8372 33.3367 34.7952 33.5626 34.7101 33.7736C34.6249 33.9846 34.4979 34.1762 34.3371 34.337C34.1763 34.4981 33.9847 34.6248 33.7737 34.71C33.5627 34.7951 33.3368 34.8372 33.1093 34.8331C32.8819 34.829 32.6573 34.7793 32.4497 34.6867C32.2419 34.5941 32.0549 34.4606 31.8997 34.2941L25.0324 27.4268Z" fill="#FB9722"/>
</svg>
