<svg width="20" height="20" viewBox="0 0 20 20" fill="none" xmlns="http://www.w3.org/2000/svg">
<path fill-rule="evenodd" clip-rule="evenodd" d="M16.6472 14.2888L19.4945 17.0958C20.1685 17.7601 20.1685 18.8373 19.4945 19.5017C18.8206 20.1661 17.7279 20.1661 17.054 19.5017L14.2067 16.6948C13.982 16.4733 13.982 16.1142 14.2067 15.8928L15.8337 14.2888C16.0584 14.0673 16.4226 14.0673 16.6472 14.2888ZM8.62868 0C13.3942 0 17.2574 3.80842 17.2574 8.50635C17.2574 13.2043 13.3942 17.0127 8.62868 17.0127C3.86319 17.0127 0 13.2043 0 8.50635C0 3.80842 3.86319 0 8.62868 0ZM8.62868 2.26836C5.13399 2.26836 2.30098 5.0612 2.30098 8.50635C2.30098 11.9515 5.13399 14.7443 8.62868 14.7443C12.1234 14.7443 14.9564 11.9515 14.9564 8.50635C14.9564 5.0612 12.1234 2.26836 8.62868 2.26836ZM10.7223 3.22307C12.3663 3.85658 13.6334 5.20849 14.1403 6.87852C14.3225 7.47862 13.9767 8.11067 13.3679 8.29024C12.7869 8.46166 12.1763 8.15884 11.9636 7.60903L11.9359 7.52883C11.6323 6.52876 10.8702 5.71554 9.8846 5.33576C9.2928 5.10771 9.00058 4.4499 9.23191 3.8665C9.46323 3.2831 10.1305 2.99502 10.7223 3.22307Z" fill="#F9F9F9"/>
</svg>
