<svg width="15" height="15" viewBox="0 0 15 15" fill="none" xmlns="http://www.w3.org/2000/svg">
<path d="M7.5 1.40625C4.13379 1.40625 1.40625 4.13379 1.40625 7.5C1.40625 10.8662 4.13379 13.5938 7.5 13.5938C10.8662 13.5938 13.5938 10.8662 13.5938 7.5C13.5938 4.13379 10.8662 1.40625 7.5 1.40625ZM8.77148 9.87598C8.99121 10.0957 8.99121 10.4561 8.77148 10.6758C8.66016 10.7871 8.5166 10.8398 8.37305 10.8398C8.22949 10.8398 8.08301 10.7842 7.97168 10.6729L5.21777 7.91016C5.01563 7.6875 5.02148 7.34473 5.23535 7.13086L8.03027 4.32715C8.25 4.10742 8.60742 4.10449 8.83008 4.32715C9.0498 4.54688 9.05273 4.9043 8.83008 5.12695L6.43066 7.5L8.77148 9.87598Z" fill="white"/>
</svg>
